<?xml version="1.0" encoding="utf-8"?>
<!DOCTYPE svg PUBLIC "-//W3C//DTD SVG 1.1//EN" "http://www.w3.org/Graphics/SVG/1.1/DTD/svg11.dtd">
<svg version="1.1" id="图形" xmlns="http://www.w3.org/2000/svg" xmlns:xlink="http://www.w3.org/1999/xlink" x="0px" y="0px" width="100%" height="100%" viewBox="0 0 1024 1024" enable-background="new 0 0 1024 1024" xml:space="preserve">
  <path fill="#FCF1E7" d="M513.024 750.56q93.184 0 175.104-35.328t142.848-96.768 96.256-143.872 35.328-175.616-35.328-175.616-96.256-143.872-142.848-96.768-175.104-35.328-175.104 35.328-142.848 96.768-96.256 143.872-35.328 175.616 35.328 175.616 96.256 143.872 142.848 96.768 175.104 35.328zM690.176 255.968q10.24 10.24 15.872 26.624t5.632 33.792-6.144 33.792-18.432 25.6q-48.128 35.84-103.936 83.456t-120.32 89.6q-14.336 9.216-28.16 8.704t-25.088-8.192-17.92-22.528-6.656-35.328l0-386.048q0-23.552 8.704-36.864t22.016-17.92 28.16-2.048 26.112 11.776q25.6 19.456 53.76 44.032t56.832 50.176 56.32 51.712 53.248 49.664z" transform="translate(0, 812) scale(1, -1)"/>
</svg>
